<svg width="40" height="40" viewBox="0 0 40 40" fill="none" xmlns="http://www.w3.org/2000/svg">
<g id="Logo">
<path id="Vector" d="M22.0246 32.1115C22.0605 28.4401 21.1297 25.4545 19.9457 25.4429C18.7616 25.4314 17.7727 28.3983 17.7368 32.0696C17.7009 35.7411 18.6317 38.7267 19.8157 38.7383C20.9998 38.7499 21.9888 35.783 22.0246 32.1115Z" fill="#09AF54"/>
<path id="Vector_2" d="M15.1577 31.2777C17.173 28.2086 18.0043 25.1937 17.0145 24.5438C16.0247 23.8939 13.5886 25.855 11.5734 28.9241C9.55809 31.9933 8.72681 35.0081 9.71657 35.6581C10.7064 36.308 13.1424 34.3469 15.1577 31.2777Z" fill="#09AF54"/>
<path id="Vector_3" d="M9.82346 26.8744C13.1782 25.3822 15.5075 23.2955 15.0263 22.2136C14.5451 21.1316 11.4355 21.4643 8.08074 22.9565C4.72605 24.4487 2.39667 26.5354 2.87791 27.6173C3.35914 28.6992 6.46877 28.3666 9.82346 26.8744Z" fill="#09AF54"/>
<path id="Vector_4" d="M14.6236 19.1796C14.8037 18.0093 12.008 16.6078 8.37917 16.0492C4.75028 15.4907 1.66249 15.9867 1.48236 17.157C1.30223 18.3273 4.09797 19.7287 7.72684 20.2873C11.3557 20.8459 14.4435 20.3499 14.6236 19.1796Z" fill="#09AF54"/>
<path id="Vector_5" d="M15.9266 16.3916C16.7107 15.5044 15.1162 12.814 12.3651 10.3826C9.61393 7.95118 6.74803 6.69937 5.96388 7.58662C5.17974 8.47389 6.7743 11.1642 9.52545 13.5956C12.2766 16.0271 15.1425 17.2788 15.9266 16.3916Z" fill="#09AF54"/>
<path id="Vector_6" d="M18.521 14.7622C19.6604 14.4398 19.7736 11.3144 18.7739 7.78158C17.7742 4.24871 16.0401 1.64612 14.9008 1.96853C13.7614 2.29093 13.6482 5.41624 14.6479 8.94915C15.6476 12.4819 17.3816 15.0846 18.521 14.7622Z" fill="#09AF54"/>
<path id="Vector_7" d="M25.5668 9.05909C26.636 5.54661 26.5845 2.41967 25.4517 2.07486C24.3189 1.73004 22.5338 4.29793 21.4646 7.8104C20.3955 11.3229 20.447 14.4498 21.5798 14.7946C22.7126 15.1394 24.4977 12.5716 25.5668 9.05909Z" fill="#09AF54"/>
<path id="Vector_8" d="M30.6011 13.8052C33.3993 11.428 35.0461 8.76935 34.2794 7.86698C33.5128 6.96458 30.6229 8.16015 27.8249 10.5373C25.0267 12.9145 23.3799 15.5731 24.1465 16.4755C24.9132 17.3779 27.803 16.1824 30.6011 13.8052Z" fill="#09AF54"/>
<path id="Vector_9" d="M32.2656 20.5215C35.9048 20.0347 38.7276 18.6886 38.5706 17.5149C38.4136 16.3413 35.3361 15.7846 31.6969 16.2714C28.0578 16.7583 25.2349 18.1043 25.392 19.278C25.549 20.4516 28.6264 21.0084 32.2656 20.5215Z" fill="#09AF54"/>
<path id="Vector_10" d="M36.9602 27.9528C37.4627 26.8806 35.1749 24.7484 31.8503 23.1903C28.5257 21.6322 25.4232 21.2384 24.9208 22.3105C24.4183 23.3828 26.706 25.515 30.0307 27.0731C33.3552 28.6311 36.4577 29.025 36.9602 27.9528Z" fill="#09AF54"/>
<path id="Vector_11" d="M29.9671 35.8639C30.9695 35.2336 30.1978 32.2029 28.2435 29.0947C26.2892 25.9864 23.8922 23.9777 22.8898 24.608C21.8874 25.2382 22.6591 28.2689 24.6134 31.3772C26.5678 34.4854 28.9647 36.4942 29.9671 35.8639Z" fill="#09AF54"/>
</g>
</svg>
