<svg width="16" height="17" viewBox="0 0 16 17" fill="none" xmlns="http://www.w3.org/2000/svg">
<g id="Star">
<path id="Vector" d="M14.6661 7.45359C14.7328 7.12026 14.4661 6.72026 14.1328 6.72026L10.3328 6.18692L8.59948 2.72026C8.53281 2.58692 8.46614 2.52026 8.33281 2.45359C7.99948 2.25359 7.59948 2.38692 7.39948 2.72026L5.73281 6.18692L1.93281 6.72026C1.73281 6.72026 1.59948 6.78692 1.53281 6.92026C1.26614 7.18692 1.26614 7.58692 1.53281 7.85359L4.26614 10.5203L3.59948 14.3203C3.59948 14.4536 3.59948 14.5869 3.66614 14.7203C3.86614 15.0536 4.26614 15.1869 4.59948 14.9869L7.99948 13.1869L11.3995 14.9869C11.4661 15.0536 11.5995 15.0536 11.7328 15.0536C11.7995 15.0536 11.7995 15.0536 11.8661 15.0536C12.1995 14.9869 12.4661 14.6536 12.3995 14.2536L11.7328 10.4536L14.4661 7.78692C14.5995 7.72026 14.6661 7.58692 14.6661 7.45359Z" fill="#FFB030"/>
</g>
</svg>
